<?xml version="1.0" encoding="UTF-8" standalone="no"?>
<!-- Created with Inkscape (http://www.inkscape.org/) -->

<svg
   xmlns:dc="http://purl.org/dc/elements/1.1/"
   xmlns:cc="http://creativecommons.org/ns#"
   xmlns:rdf="http://www.w3.org/1999/02/22-rdf-syntax-ns#"
   xmlns:svg="http://www.w3.org/2000/svg"
   xmlns="http://www.w3.org/2000/svg"
   xmlns:sodipodi="http://sodipodi.sourceforge.net/DTD/sodipodi-0.dtd"
   xmlns:inkscape="http://www.inkscape.org/namespaces/inkscape"
   width="210mm"
   height="297mm"
   viewBox="0 0 210 297"
   version="1.1"
   id="svg8"
   inkscape:version="0.92.3 (2405546, 2018-03-11)"
   sodipodi:docname="Blix.2.svg">
  <defs
     id="defs2" />
  <sodipodi:namedview
     id="base"
     pagecolor="#ffffff"
     bordercolor="#666666"
     borderopacity="1.0"
     inkscape:pageopacity="0.0"
     inkscape:pageshadow="2"
     inkscape:zoom="0.539439"
     inkscape:cx="248.33508"
     inkscape:cy="700.23188"
     inkscape:document-units="mm"
     inkscape:current-layer="layer1"
     showgrid="false"
     inkscape:window-width="1366"
     inkscape:window-height="705"
     inkscape:window-x="-8"
     inkscape:window-y="-8"
     inkscape:window-maximized="1" />
  <metadata
     id="metadata5">
    <rdf:RDF>
      <cc:Work
         rdf:about="">
        <dc:format>image/svg+xml</dc:format>
        <dc:type
           rdf:resource="http://purl.org/dc/dcmitype/StillImage" />
        <dc:title></dc:title>
      </cc:Work>
    </rdf:RDF>
  </metadata>
  <g
     inkscape:label="Layer 1"
     inkscape:groupmode="layer"
     id="layer1">
    <g
       id="g3727"
       transform="matrix(0.26458333,0,0,0.26458333,40.456682,113.66898)">
      <path
         id="path3725"
         d="m 57.9,6.4 -0.1,7 c 4.7,1 9.3,2.9 13.4,5.8 l 5,-4.9 c 1.2,-1.2 3.2,-1.2 4.4,0.1 l 5.9,6 c 1.2,1.2 1.2,3.2 -0.1,4.4 l -5,4.9 c 2.7,4.2 4.5,8.8 5.4,13.6 l 7,0.1 c 1.7,0 3.1,1.4 3,3.1 l -0.1,8.4 c 0,1.7 -1.4,3.1 -3.1,3 l -7,-0.1 c -1,4.7 -2.9,9.3 -5.8,13.4 l 4.9,5 c 1.2,1.2 1.2,3.2 -0.1,4.4 l -6,5.9 c -1.2,1.2 -3.2,1.2 -4.4,-0.1 l -4.9,-5 c -2.5,1.6 -5.1,2.9 -7.8,3.9 V 74 c 2.3,-1.2 4.4,-2.7 6.3,-4.6 C 79.5,59 79.8,41.9 69.4,31.2 59,20.5 41.9,20.2 31.2,30.6 20.5,41 20.2,58.1 30.6,68.8 c 1.8,1.8 3.8,3.4 5.9,4.6 v 11.5 c -2.7,-1 -5.3,-2.4 -7.8,-4.1 l -5,4.9 c -1.2,1.2 -3.2,1.2 -4.4,-0.1 l -5.9,-6 c -1.2,-1.2 -1.2,-3.2 0.1,-4.4 l 5,-4.9 C 15.8,66.1 14,61.5 13.1,56.7 l -7,-0.1 c -1.7,0 -3.1,-1.4 -3,-3.1 l 0.1,-8.4 c 0,-1.7 1.4,-3.1 3.1,-3 l 7,0.1 c 1,-4.7 2.9,-9.3 5.8,-13.4 l -4.9,-5 C 13,22.6 13,20.6 14.3,19.4 l 6,-5.9 c 1.2,-1.2 3.2,-1.2 4.4,0.1 l 4.9,5 c 4.2,-2.7 8.8,-4.5 13.6,-5.4 l 0.1,-7 c 0,-1.7 1.4,-3.1 3.1,-3 l 8.4,0.1 c 1.8,0 3.2,1.4 3.1,3.1 z M 40.5,34.5 c -5.4,3.2 -9,9.1 -9,15.7 0,5.5 2.4,10.4 6.3,13.8 2.2,2 3.6,4.7 3.6,7.7 v 22.4 c 0,1.5 1.2,2.7 2.7,2.7 h 3 V 70.2 c 0,-1.2 0.9,-2.3 2.1,-2.4 1.4,-0.1 2.6,1 2.6,2.3 v 26.8 h 3 c 1.5,0 2.7,-1.2 2.7,-2.7 V 72.7 c 0,-3.2 1.4,-6.2 3.9,-8.1 4.3,-3.4 7,-8.6 7,-14.4 0,-7.1 -4.1,-13.3 -10,-16.3 -0.4,-0.2 -0.8,0.1 -0.8,0.5 v 11 c 0,3.1 -2.6,5.7 -5.7,5.7 h -4.8 c -3.1,0 -5.7,-2.6 -5.7,-5.7 V 35 c 0,-0.5 -0.5,-0.8 -0.9,-0.5 z"
         inkscape:connector-curvature="0" />
    </g>
    <flowRoot
       xml:space="preserve"
       id="flowRoot3739"
       style="font-style:normal;font-weight:normal;font-size:92.00000116px;line-height:1.25;font-family:sans-serif;letter-spacing:0px;word-spacing:0px;fill:#000000;fill-opacity:1;stroke:none;"
       transform="scale(0.26458333)"><flowRegion
         id="flowRegion3741"
         style="font-size:92.00000116px;"><rect
           id="rect3743"
           width="181.42856"
           height="112.85722"
           x="253.63029"
           y="430.90671"
           style="font-size:92px" /></flowRegion><flowPara
         id="flowPara3745"
         style="font-style:normal;font-variant:normal;font-weight:normal;font-stretch:normal;font-size:96.00000121px;font-family:'Bookman Old Style';-inkscape-font-specification:'Bookman Old Style'">blix</flowPara></flowRoot>  </g>
</svg>
